<svg width="24" height="24" viewBox="0 0 24 24" fill="none" xmlns="http://www.w3.org/2000/svg">
<path fill-rule="evenodd" clip-rule="evenodd" d="M20.2138 15.1985C22.2112 17.0314 23.5912 19.5167 23.989 22.3201C24.0165 22.5313 23.9923 22.7452 23.9179 22.9477C23.8436 23.1503 23.7208 23.3369 23.5576 23.4955C23.3943 23.6541 23.1943 23.781 22.9707 23.8679C22.747 23.9548 22.5047 23.9998 22.2596 24H1.74078C1.49552 24.0003 1.25296 23.9556 1.02904 23.8688C0.805119 23.7821 0.604906 23.6552 0.441562 23.4965C0.278219 23.3378 0.155444 23.151 0.0813074 22.9482C0.00717098 22.7455 -0.0166479 22.5314 0.0114164 22.3201C0.409169 19.5152 1.7892 17.0314 3.78661 15.1985C4.21376 15.5405 4.65994 15.8615 5.13897 16.148C3.34389 17.7514 2.08665 19.9727 1.72867 22.5031L22.2596 22.5001C21.9069 19.9712 20.6513 17.7514 18.8597 16.148C19.3367 15.86 19.7893 15.5427 20.2138 15.1985ZM11.9993 0.00146484C15.2851 0.00146484 17.1874 3.00128 19.5739 3.95072C19.1718 4.35759 18.6732 4.68441 18.1121 4.90883C17.551 5.13326 16.9406 5.25002 16.3227 5.25114C15.8074 5.25114 15.3214 5.16114 14.8632 5.01565C14.2618 5.6716 13.498 6.20185 12.6284 6.56715C11.7588 6.93245 10.8056 7.12346 9.83937 7.12602C7.42692 7.12602 3.35427 7.501 4.2276 4.2717C6.81299 3.00128 8.56138 0.00146484 11.9993 0.00146484Z" fill="white"/>
<path fill-rule="evenodd" clip-rule="evenodd" d="M12.0008 1.50141C15.8141 1.50141 18.9183 4.19224 18.9183 7.50103C18.9183 10.8098 15.8141 13.5007 12.0008 13.5007C8.18415 13.5007 5.08341 10.8098 5.08341 7.50103C5.08341 4.19224 8.18415 1.50141 12.0008 1.50141ZM12.0008 15.0006C14.2944 15 16.4936 14.2092 18.1149 12.8022C19.7362 11.3952 20.6466 9.48723 20.6459 7.49803C20.6452 5.50883 19.7335 3.60134 18.1112 2.19519C16.489 0.789037 14.2892 -0.000596362 11.9957 3.37934e-07C9.70216 0.000597038 7.50286 0.791375 5.8816 2.19837C4.26033 3.60537 3.3499 5.51333 3.35059 7.50253C3.35127 9.49173 4.26303 11.3992 5.88526 12.8054C7.5075 14.2115 9.70734 15.0012 12.0008 15.0006Z" fill="white"/>
</svg>
