<svg width="20" height="24" viewBox="0 0 20 24" fill="none" xmlns="http://www.w3.org/2000/svg">
<path d="M6.25051 9.1434C6.26345 8.2378 6.66265 7.37263 7.36303 6.73222C8.06341 6.09181 9.0096 5.7268 10 5.71496C10.9904 5.7268 11.9366 6.09181 12.637 6.73222C13.3374 7.37263 13.7365 8.2378 13.7495 9.1434C13.7365 10.049 13.3374 10.9142 12.637 11.5546C11.9366 12.195 10.9904 12.56 10 12.5718C9.0096 12.56 8.06341 12.195 7.36303 11.5546C6.66265 10.9142 6.26345 10.049 6.25051 9.1434ZM10 19.4287L14.9993 20.5716V17.0517C13.4916 17.8819 11.7598 18.3094 10 18.2859C8.24021 18.3094 6.50838 17.8819 5.00068 17.0517V20.5716M10 2.28651C9.01509 2.27008 8.03692 2.438 7.1256 2.77997C6.21428 3.12193 5.38908 3.6307 4.70072 4.27501C3.98846 4.90512 3.4256 5.6625 3.04718 6.50004C2.66875 7.33757 2.48284 8.23735 2.50101 9.1434C2.48799 10.0437 2.6764 10.937 3.05468 11.7683C3.43295 12.5996 3.9931 13.3514 4.70072 13.9775C5.38587 14.628 6.20963 15.1431 7.1211 15.4911C8.03257 15.839 9.01239 16.0123 10 16.0003C10.9876 16.0123 11.9674 15.839 12.8789 15.4911C13.7904 15.1431 14.6141 14.628 15.2993 13.9775C16.0069 13.3514 16.567 12.5996 16.9453 11.7683C17.3236 10.937 17.512 10.0437 17.499 9.1434C17.5172 8.23735 17.3312 7.33757 16.9528 6.50004C16.5744 5.6625 16.0115 4.90512 15.2993 4.27501C14.6109 3.6307 13.7857 3.12193 12.8744 2.77997C11.9631 2.438 10.9849 2.27008 10 2.28651ZM19.9986 9.1434C19.972 10.2404 19.7308 11.3241 19.2862 12.3433C18.8858 13.3803 18.2799 14.341 17.499 15.1775V24L10 21.7144L2.50101 24V15.1775C0.883346 13.5163 -0.00676932 11.3676 0.00135358 9.1434C-0.0206745 7.94411 0.226369 6.75342 0.727233 5.64484C1.2281 4.53626 1.97215 3.53331 2.91346 2.69792C3.83046 1.8295 4.93239 1.14213 6.15122 0.678259C7.37006 0.214387 8.67993 -0.0161494 10 0.000879042C11.3201 -0.0161494 12.6299 0.214387 13.8488 0.678259C15.0676 1.14213 16.1695 1.8295 17.0865 2.69792C18.0278 3.53331 18.7719 4.53626 19.2728 5.64484C19.7736 6.75342 20.0207 7.94411 19.9986 9.1434Z" fill="white"/>
</svg>
