<svg width="22" height="22" viewBox="0 0 22 22" fill="none" xmlns="http://www.w3.org/2000/svg">
<path d="M19.7268 8.74314C19.7268 8.51872 19.6379 8.30349 19.4795 8.1448C19.3211 7.98611 19.1063 7.89696 18.8823 7.89696C18.6583 7.89696 18.4435 7.98611 18.2851 8.1448C18.1268 8.30349 18.0378 8.51872 18.0378 8.74314H19.7268ZM3.96222 8.74314C3.96222 8.51872 3.87325 8.30349 3.71486 8.1448C3.55648 7.98611 3.34167 7.89696 3.11769 7.89696C2.8937 7.89696 2.67889 7.98611 2.52051 8.1448C2.36213 8.30349 2.27316 8.51872 2.27316 8.74314H3.96222ZM20.5376 11.5976C20.6149 11.6807 20.7082 11.7474 20.8117 11.7937C20.9153 11.8399 21.0272 11.8648 21.1406 11.8668C21.254 11.8688 21.3666 11.8479 21.4718 11.8053C21.5769 11.7628 21.6724 11.6994 21.7526 11.6191C21.8328 11.5387 21.8961 11.443 21.9385 11.3376C21.981 11.2323 22.0019 11.1194 21.9999 11.0058C21.9979 10.8922 21.973 10.7801 21.9269 10.6763C21.8807 10.5725 21.8142 10.4791 21.7312 10.4017L20.5376 11.5976ZM11 0.845438L11.5968 0.247469C11.4385 0.0890067 11.2238 0 11 0C10.7762 0 10.5615 0.0890067 10.4032 0.247469L11 0.845438ZM0.268796 10.4017C0.185822 10.4791 0.11927 10.5725 0.0731112 10.6763C0.0269525 10.7801 0.00213217 10.8922 0.000131433 11.0058C-0.00186931 11.1194 0.0189903 11.2323 0.0614658 11.3376C0.103941 11.443 0.167163 11.5387 0.247358 11.6191C0.327554 11.6994 0.423081 11.7628 0.52824 11.8053C0.633399 11.8479 0.746036 11.8688 0.859432 11.8668C0.972828 11.8648 1.08466 11.8399 1.18825 11.7937C1.29185 11.7474 1.38509 11.6807 1.4624 11.5976L0.268796 10.4017ZM5.36978 22H16.6302V20.3076H5.36978V22ZM19.7268 18.8973V8.74314H18.0378V18.8973H19.7268ZM3.96222 18.8973V8.74314H2.27316V18.8973H3.96222ZM21.7312 10.4017L11.5968 0.247469L10.4032 1.44341L20.5376 11.5976L21.7312 10.4017ZM10.4032 0.247469L0.268796 10.4017L1.4624 11.5976L11.5968 1.44341L10.4032 0.247469ZM16.6302 22C17.4515 22 18.2391 21.6731 18.8199 21.0912C19.4006 20.5094 19.7268 19.7202 19.7268 18.8973H18.0378C18.0378 19.6758 17.4072 20.3076 16.6302 20.3076V22ZM5.36978 20.3076C4.59281 20.3076 3.96222 19.6758 3.96222 18.8973H2.27316C2.27316 19.7202 2.59941 20.5094 3.18014 21.0912C3.76086 21.6731 4.5485 22 5.36978 22V20.3076Z" fill="white"/>
</svg>
