<svg width="16" height="19" viewBox="0 0 16 19" fill="none" xmlns="http://www.w3.org/2000/svg">
<path d="M10.885 16C10.3003 16 9.80133 15.7934 9.388 15.38C8.97533 14.968 8.769 14.4697 8.769 13.885C8.769 13.3004 8.97567 12.8014 9.389 12.388C9.80167 11.9754 10.3003 11.769 10.885 11.769C11.4697 11.769 11.9683 11.9757 12.381 12.389C12.7937 12.8017 13 13.3004 13 13.885C13 14.4697 12.7933 14.9684 12.38 15.381C11.968 15.7937 11.4697 16 10.885 16ZM1.615 19C1.155 19 0.771 18.846 0.463 18.538C0.154333 18.2294 0 17.845 0 17.385V4.61502C0 4.15502 0.154333 3.77102 0.463 3.46302C0.771 3.15435 1.155 3.00002 1.615 3.00002H3.385V0.77002H4.462V3.00002H11.615V0.77002H12.615V3.00002H14.385C14.845 3.00002 15.229 3.15435 15.537 3.46302C15.8457 3.77102 16 4.15502 16 4.61502V17.385C16 17.845 15.846 18.229 15.538 18.537C15.2293 18.8457 14.845 19 14.385 19H1.615ZM1.615 18H14.385C14.5383 18 14.6793 17.936 14.808 17.808C14.936 17.6794 15 17.5384 15 17.385V8.61502H1V17.385C1 17.5384 1.064 17.6794 1.192 17.808C1.32067 17.936 1.46167 18 1.615 18ZM1 7.61502H15V4.61502C15 4.46169 14.936 4.32069 14.808 4.19202C14.6793 4.06402 14.5383 4.00002 14.385 4.00002H1.615C1.46167 4.00002 1.32067 4.06402 1.192 4.19202C1.064 4.32069 1 4.46169 1 4.61502V7.61502Z" fill="white"/>
</svg>
