<svg width="18" height="14" viewBox="0 0 18 14" fill="none" xmlns="http://www.w3.org/2000/svg">
<path d="M17.625 7C17.625 7.09946 17.5855 7.19484 17.5152 7.26517C17.4448 7.33549 17.3495 7.375 17.25 7.375H0.75C0.650544 7.375 0.555161 7.33549 0.484835 7.26517C0.414509 7.19484 0.375 7.09946 0.375 7C0.375 6.90054 0.414509 6.80516 0.484835 6.73483C0.555161 6.66451 0.650544 6.625 0.75 6.625H17.25C17.3495 6.625 17.4448 6.66451 17.5152 6.73483C17.5855 6.80516 17.625 6.90054 17.625 7ZM0.75 1.375H17.25C17.3495 1.375 17.4448 1.33549 17.5152 1.26517C17.5855 1.19484 17.625 1.09946 17.625 1C17.625 0.900544 17.5855 0.805161 17.5152 0.734835C17.4448 0.664509 17.3495 0.625 17.25 0.625H0.75C0.650544 0.625 0.555161 0.664509 0.484835 0.734835C0.414509 0.805161 0.375 0.900544 0.375 1C0.375 1.09946 0.414509 1.19484 0.484835 1.26517C0.555161 1.33549 0.650544 1.375 0.75 1.375ZM17.25 12.625H0.75C0.650544 12.625 0.555161 12.6645 0.484835 12.7348C0.414509 12.8052 0.375 12.9005 0.375 13C0.375 13.0995 0.414509 13.1948 0.484835 13.2652C0.555161 13.3355 0.650544 13.375 0.75 13.375H17.25C17.3495 13.375 17.4448 13.3355 17.5152 13.2652C17.5855 13.1948 17.625 13.0995 17.625 13C17.625 12.9005 17.5855 12.8052 17.5152 12.7348C17.4448 12.6645 17.3495 12.625 17.25 12.625Z" fill="white"/>
</svg>
