<svg width="34" height="39" viewBox="0 0 34 39" fill="none" xmlns="http://www.w3.org/2000/svg">
<path d="M16.9966 23.2489C13.136 23.2489 9.98242 20.1358 9.98242 16.285C9.98242 12.4342 13.136 9.33911 16.9966 9.33911C20.857 9.33911 24.0106 12.4522 24.0106 16.303C24.0106 20.1538 20.857 23.2489 16.9966 23.2489ZM16.9966 12.0383C14.6404 12.0383 12.701 13.9457 12.701 16.303C12.701 18.6603 14.6223 20.5677 16.9966 20.5677C19.3708 20.5677 21.292 18.6603 21.292 16.303C21.292 13.9457 19.3527 12.0383 16.9966 12.0383Z" fill="white"/>
<path d="M16.9944 38.7065C14.312 38.7065 11.6115 37.6988 9.50911 35.7014C4.16247 30.5909 -1.74601 22.4393 0.483265 12.7402C2.49505 3.94083 10.2341 0 16.9944 0H17.0125C23.7729 0 31.5119 3.94083 33.5237 12.7582C35.7348 22.4573 29.8263 30.5909 24.4797 35.7014C22.3773 37.6988 19.6768 38.7065 16.9944 38.7065ZM16.9944 2.6992C11.7203 2.6992 4.94181 5.48837 3.14752 13.334C1.19011 21.8095 6.55487 29.1154 11.4121 33.74C14.5476 36.7451 19.4593 36.7451 22.5948 33.74C27.4339 29.1154 32.7987 21.8095 30.8775 13.334C29.0651 5.48837 22.2685 2.6992 16.9944 2.6992Z" fill="white"/>
</svg>
