<svg width="16" height="21" viewBox="0 0 16 21" fill="none" xmlns="http://www.w3.org/2000/svg">
<path d="M4.99998 8.00004C5.01034 7.20761 5.32974 6.45055 5.89012 5.89017C6.4505 5.32979 7.20756 5.0104 7.99998 5.00004C8.79241 5.0104 9.54947 5.32979 10.1098 5.89017C10.6702 6.45055 10.9896 7.20761 11 8.00004C10.9896 8.79247 10.6702 9.54952 10.1098 10.1099C9.54947 10.6703 8.79241 10.9897 7.99998 11C7.20756 10.9897 6.4505 10.6703 5.89012 10.1099C5.32974 9.54952 5.01034 8.79247 4.99998 8.00004ZM7.99998 17L12 18V14.92C10.7937 15.6465 9.40801 16.0206 7.99998 16C6.59196 16.0206 5.20631 15.6465 3.99998 14.92V18M7.99998 2.00004C7.21195 1.98566 6.42931 2.1326 5.70015 2.43183C4.971 2.73106 4.31075 3.17625 3.75998 3.74004C3.1901 4.2914 2.73976 4.95414 2.43697 5.68701C2.13419 6.41988 1.98544 7.20722 1.99998 8.00004C1.98956 8.78784 2.14032 9.56945 2.44298 10.2969C2.74564 11.0243 3.19381 11.6821 3.75998 12.23C4.30818 12.7993 4.96728 13.25 5.69655 13.5544C6.42583 13.8589 7.20979 14.0105 7.99998 14C8.79018 14.0105 9.57414 13.8589 10.3034 13.5544C11.0327 13.25 11.6918 12.7993 12.24 12.23C12.8062 11.6821 13.2543 11.0243 13.557 10.2969C13.8597 9.56945 14.0104 8.78784 14 8.00004C14.0145 7.20722 13.8658 6.41988 13.563 5.68701C13.2602 4.95414 12.8099 4.2914 12.24 3.74004C11.6892 3.17625 11.029 2.73106 10.2998 2.43183C9.57066 2.1326 8.78802 1.98566 7.99998 2.00004ZM16 8.00004C15.9787 8.95992 15.7856 9.90823 15.43 10.8C15.1096 11.7075 14.6248 12.5481 14 13.28V21L7.99998 19L1.99998 21V13.28C0.705674 11.8265 -0.00651482 9.94631 -1.56234e-05 8.00004C-0.0176405 6.95062 0.180021 5.90873 0.580767 4.93868C0.981512 3.96864 1.57684 3.09103 2.32998 2.36004C3.06369 1.60013 3.94535 0.998669 4.92055 0.592766C5.89575 0.186863 6.94379 -0.0148637 7.99998 3.6768e-05C9.05618 -0.0148637 10.1042 0.186863 11.0794 0.592766C12.0546 0.998669 12.9363 1.60013 13.67 2.36004C14.4231 3.09103 15.0185 3.96864 15.4192 4.93868C15.8199 5.90873 16.0176 6.95062 16 8.00004Z" fill="white"/>
</svg>
