<svg width="31" height="28" viewBox="0 0 31 28" fill="none" xmlns="http://www.w3.org/2000/svg">
<path d="M5.00513 2.1166V20.8436C5.00513 22.161 3.52079 22.9318 2.44313 22.1741C1.08508 21.2506 -0.488552 22.6641 0.144273 23.7742C0.350527 24.1361 0.744931 24.3478 1.0847 24.5886C1.94 25.195 3.67212 26.4388 4.85142 27.2406C5.40421 27.6164 6.87909 28.1068 7.44213 27.7465L12.4411 24.2313C12.6014 24.1252 12.7359 23.9919 12.8365 23.8393C12.9372 23.6867 13.0019 23.5178 13.027 23.3428C13.052 23.1678 13.0368 22.9902 12.9823 22.8204C12.9278 22.6507 12.8351 22.4923 12.7097 22.3546C12.5843 22.2169 12.4287 22.1027 12.2521 22.0188C12.0756 21.9349 11.8816 21.883 11.6819 21.8662C11.4821 21.8494 11.2805 21.8679 11.089 21.9208C10.8975 21.9737 10.72 22.0598 10.5671 22.1741C9.48946 22.9318 8.00513 22.161 8.00513 20.8436V2.1166C7.97613 0.398574 5.04013 0.37221 5.00513 2.1166ZM29.5001 4.31357H13.6281C13.428 4.30903 13.2288 4.33976 13.0423 4.40394C12.8559 4.46812 12.6859 4.56445 12.5425 4.68727C12.3991 4.81008 12.2851 4.95688 12.2073 5.11902C12.1295 5.28116 12.0894 5.45535 12.0894 5.63132C12.0894 5.80729 12.1295 5.98148 12.2073 6.14361C12.2851 6.30575 12.3991 6.45255 12.5425 6.57537C12.6859 6.69818 12.8559 6.79452 13.0423 6.8587C13.2288 6.92288 13.428 6.9536 13.6281 6.94906H29.5001C29.898 6.94906 30.2795 6.81018 30.5608 6.56297C30.8421 6.31576 31.0001 5.98048 31.0001 5.63088C31.0001 5.28127 30.8421 4.94599 30.5608 4.69878C30.2795 4.45157 29.898 4.31357 29.5001 4.31357ZM29.5001 10.1698H16.2741C16.0771 10.1698 15.8821 10.2039 15.7001 10.2702C15.5181 10.3364 15.3528 10.4335 15.2135 10.5559C15.0742 10.6783 14.9637 10.8236 14.8883 10.9836C14.8129 11.1435 14.7741 11.3149 14.7741 11.488C14.7741 11.6611 14.8129 11.8325 14.8883 11.9924C14.9637 12.1524 15.0742 12.2977 15.2135 12.4201C15.3528 12.5425 15.5181 12.6396 15.7001 12.7058C15.8821 12.7721 16.0771 12.8062 16.2741 12.8062H29.5001C29.6971 12.8062 29.8922 12.7721 30.0742 12.7058C30.2561 12.6396 30.4215 12.5425 30.5608 12.4201C30.7001 12.2977 30.8106 12.1524 30.8859 11.9924C30.9613 11.8325 31.0001 11.6611 31.0001 11.488C31.0001 11.3149 30.9613 11.1435 30.8859 10.9836C30.8106 10.8236 30.7001 10.6783 30.5608 10.5559C30.4215 10.4335 30.2561 10.3364 30.0742 10.2702C29.8922 10.2039 29.6971 10.1698 29.5001 10.1698ZM29.5001 16.0278H18.9201C18.5223 16.0278 18.1408 16.1667 17.8595 16.4139C17.5782 16.6611 17.4201 16.9964 17.4201 17.346C17.4201 17.6956 17.5782 18.0309 17.8595 18.2781C18.1408 18.5253 18.5223 18.6642 18.9201 18.6642H29.5001C29.898 18.6642 30.2795 18.5253 30.5608 18.2781C30.8421 18.0309 31.0001 17.6956 31.0001 17.346C31.0001 16.9964 30.8421 16.6611 30.5608 16.4139C30.2795 16.1667 29.898 16.0278 29.5001 16.0278ZM29.5001 21.8849H21.5641C21.1663 21.8849 20.7848 22.0238 20.5035 22.271C20.2222 22.5182 20.0641 22.8535 20.0641 23.2031C20.0641 23.5527 20.2222 23.888 20.5035 24.1352C20.7848 24.3824 21.1663 24.5213 21.5641 24.5213H29.5001C29.898 24.5213 30.2795 24.3824 30.5608 24.1352C30.8421 23.888 31.0001 23.5527 31.0001 23.2031C31.0001 22.8535 30.8421 22.5182 30.5608 22.271C30.2795 22.0238 29.898 21.8849 29.5001 21.8849Z" fill="#0C5034"/>
</svg>
